# xmcd
#
# Track frame offsets:
#	150
#	16175
#	39090
#	55788
#	70760
#	90718
#	105431
#
# Disc length: 1624
#
# Revision: 2
# Processed by: cddbd v1.5.1PL0 Copyright (c) Steve Scherf et al.
# Submitted via: CDmax 2.0
# Normalized: r1:DSETVAR1,TDELIM( - )
#
DISCID=46065607
DTITLE=Various Artist - Songs for Shabfas
DYEAR=2004
DGENRE=Old School Soul
TTITLE0=Gladys Knight - I've got to use my imagination
TTITLE1=Al Green - Love and Happiness
TTITLE2=The Spinners - Sadie
TTITLE3=Gladys Knight - If I were your woman
TTITLE4=Gladys Knight - Neither one of us (wants to be the first to say goodbye)
TTITLE5=The Spinners - I'll be around
TTITLE6=The Spinners - Love don't love nobody (Pt 1)
EXTD=
EXTT0=
EXTT1=
EXTT2=
EXTT3=
EXTT4=
EXTT5=
EXTT6=
PLAYORDER=
